<?xml version="1.0" encoding="utf-8"?>
<!-- Generator: Adobe Illustrator 16.0.0, SVG Export Plug-In . SVG Version: 6.00 Build 0)  -->
<!DOCTYPE svg PUBLIC "-//W3C//DTD SVG 1.1//EN" "http://www.w3.org/Graphics/SVG/1.1/DTD/svg11.dtd">
<svg version="1.1" id="Layer_1" xmlns="http://www.w3.org/2000/svg" xmlns:xlink="http://www.w3.org/1999/xlink" x="0px" y="0px"
	 width="191.165px" height="216px" viewBox="0 0 191.165 216" enable-background="new 0 0 191.165 216" xml:space="preserve">
<path d="M146.213,166.568c8.893-6.352,10.036-16.355,6.479-25.12C149.389,133.192,142.276,127,131.099,127h-19.306L191.165,0
	h-36.941L95.428,94.505L36.633,0H0l80.583,127.74V216h13.551h16.994h23.146c17.021,0,25.786-13.73,25.786-27.067
	C160.061,180.55,156.376,170.885,146.213,166.568z M130.845,162h-20.262v-23h20.516C145.07,139,144.817,162,130.845,162z
	 M134.274,203h-23.691v-28h23.691c8.637,0,12.956,6.95,12.956,13.936C147.23,195.924,142.911,203,134.274,203z"/>
</svg>
